<svg width="210" height="197" viewBox="0 0 210 197" fill="none" xmlns="http://www.w3.org/2000/svg">
<path d="M125.961 1.13372C121.612 2.64872 116.236 5.04339 114.477 6.31404C113.744 6.85162 113.011 7.87791 112.864 8.61097C112.522 10.3703 113.939 14.5732 115.552 16.4792C116.578 17.701 117.556 20.9753 120.732 34.0238C127.916 63.0531 127.916 63.1998 124.495 73.7559C121.319 83.7744 121.416 85.2405 126.157 98.9244C133.732 120.623 140.134 138.461 144.386 149.506C146.78 155.81 149.664 163.532 150.739 166.611C151.814 169.689 153.182 172.719 153.72 173.306C155.04 174.772 158.754 176.14 163.445 176.873C168.235 177.655 178.107 177.264 182.407 176.092C193.794 173.062 203.568 166.122 208.064 157.765C211.29 151.754 210.899 149.457 203.666 130.202C186.903 85.7781 184.509 79.767 181.039 73.0228C178.4 67.7936 174.93 64.226 168.479 59.8277C160.366 54.3541 160.22 54.1098 150.25 34.2682C145.412 24.5429 140.427 14.7687 139.205 12.5206C137.641 9.68613 137.104 8.12226 137.299 7.3892C137.641 6.02081 135.296 1.13372 133.976 0.44953C132.559 -0.332404 129.578 -0.0880496 125.961 1.13372ZM131.581 1.23146C131.581 1.6713 122.736 5.62985 119.755 6.50952C114.917 7.87791 113.988 7.14484 118.337 5.23888C124.984 2.30662 131.581 0.302918 131.581 1.23146ZM134.807 2.50211C135.051 3.33291 134.807 3.87049 133.536 4.94565C129.822 8.02452 119.901 12.1785 116.236 12.1785C114.819 12.1785 114.33 11.9342 113.89 11.0056C113.059 9.14855 113.646 8.41549 116.432 8.07339C120.537 7.53581 130.897 3.38178 131.826 1.91566C132.412 0.98711 134.416 1.37808 134.807 2.50211ZM136.371 6.36291C136.664 8.85532 130.653 12.6184 122.345 15.1108C118.044 16.4303 115.307 16.0882 115.063 14.28C114.917 13.4003 115.21 13.156 116.774 12.9116C122.247 11.9831 129.236 9.14855 132.803 6.41178C135.1 4.65243 136.175 4.60356 136.371 6.36291ZM139.352 14.4266C140.72 17.31 141.844 19.8024 141.844 19.9979C141.844 20.9753 137.739 22.0016 135.198 21.6595C131.533 21.2197 128.209 22.4414 125.864 25.0805C124.104 27.0353 121.123 28.648 120.634 27.915C120.097 27.0353 117.8 17.5055 118.044 17.2611C118.191 17.0656 119.315 16.7724 120.537 16.5281C124.006 15.8927 130.409 13.2537 133.439 11.1523C134.954 10.126 136.371 9.24629 136.566 9.24629C136.713 9.24629 137.984 11.5921 139.352 14.4266ZM147.953 32.0201C150.788 37.8358 153.085 42.7717 153.085 42.9672C153.085 43.1138 151.961 43.798 150.592 44.4333C148.735 45.313 147.709 46.2416 146.34 48.2941C143.115 53.1324 139.596 54.6962 134.611 53.4256C131.728 52.6925 131.337 52.6925 129.333 53.4745C128.112 53.9143 127.036 54.2564 126.988 54.1586C126.89 54.0609 125.57 48.6851 124.006 42.2341C122.443 35.7832 121.074 30.2608 120.976 29.9676C120.879 29.6743 121.71 29.039 122.882 28.5503C124.006 28.1105 125.668 26.8887 126.548 25.8624C128.796 23.2234 131.679 22.2459 135.833 22.6369C138.277 22.8324 139.499 22.7347 140.378 22.1971C141.062 21.8061 141.893 21.5129 142.235 21.464C142.577 21.464 145.168 26.2045 147.953 32.0201ZM156.115 48.3919C158.998 53.8165 161.1 56.0646 167.159 60.2186C174.344 65.0569 177.422 68.2335 179.915 73.1694C181.039 75.4175 181.821 77.3723 181.723 77.6167C181.576 77.8122 178.986 79.7181 176.005 81.8196C166.573 88.466 155.773 93.402 144.532 96.1876C139.596 97.4094 131.972 98.68 129.285 98.68H127.281L125.375 93.1576C122.785 85.436 122.834 82.1617 125.668 73.5115C127.867 66.7673 128.258 63.6885 127.525 58.3127L127.085 55.3315L129.382 54.5007C131.484 53.6699 131.875 53.6699 134.416 54.3541C139.987 55.8691 144.972 53.5233 147.562 48.1475C148.246 46.6814 148.931 46.0461 150.641 45.4108C151.863 44.922 153.085 44.5311 153.427 44.4822C153.72 44.4333 154.942 46.2416 156.115 48.3919ZM184.313 82.2105C185.144 84.2143 187.099 89.4434 188.712 93.8418C190.275 98.2402 194.381 109.236 197.802 118.228C201.223 127.221 204.888 137.19 205.963 140.367C207.869 145.938 207.918 146.183 207.038 146.818C196.433 154.637 189.64 158.4 180.404 161.479C171.362 164.46 153.182 166.757 151.765 165.096C150.69 163.727 128.845 104.398 128.063 100.635C127.965 100.097 128.747 99.8529 131.924 99.5597C148.491 98.1425 167.99 90.3231 179.475 80.5489C180.697 79.5226 181.919 78.6918 182.261 78.643C182.554 78.643 183.482 80.2557 184.313 82.2105ZM208.504 148.333C208.651 148.773 208.797 150.288 208.797 151.705C208.797 153.855 208.455 154.882 207.087 157.276C200.832 167.93 187.588 175.407 173.366 176.238C167.697 176.58 161.002 175.798 157.239 174.381C154.991 173.55 154.502 173.11 153.573 171.156C152.987 169.885 152.498 168.321 152.449 167.686C152.352 166.513 152.449 166.464 155.284 166.562C159.34 166.708 168.088 165.78 173.61 164.607C184.411 162.261 196.873 156.348 205.132 149.604C207.918 147.307 208.113 147.258 208.504 148.333Z" fill="#29347F"/>
<path d="M98.9851 26.6933C97.4701 26.9865 94.4401 30.8962 94.098 33.0465C93.9025 34.3172 92.192 37.0539 88.3312 42.1854C85.3501 46.2417 80.6096 52.8392 77.824 56.8955C71.9595 65.3502 66.3393 72.8763 64.3356 74.9289C63.5537 75.7108 61.1101 77.2258 58.9109 78.2521C53.1931 80.94 48.1105 83.8722 45.6181 85.8759C41.7084 89.0526 35.9905 97.605 26.3629 114.808C24.3592 118.424 18.9346 128.003 14.2918 136.066C0.461362 160.257 -0.955894 163.678 0.412491 168.956C3.29587 179.952 15.1226 190.802 28.5621 194.663C36.7724 197.008 46.9865 197.253 51.2871 195.151C52.8021 194.369 53.584 193.441 55.5389 189.824C56.8584 187.381 61.5988 178.926 66.095 171.009C78.2638 149.555 94.3423 119.646 96.2483 114.808C97.6167 111.338 97.6656 107.77 96.3461 99.5109C95.8085 95.9434 95.4664 92.1803 95.613 91.1051C96.1017 87.3421 99.4738 78.3498 107.342 59.73C112.327 47.9521 113.207 46.095 114.428 45.4597C115.601 44.8244 117.898 40.0839 117.898 38.2268C117.898 36.5163 116.53 35.0991 111.789 32.0691C105.387 27.9639 101.331 26.3023 98.9851 26.6933ZM102.259 30.3097C105.485 32.8999 111.887 36.3697 115.21 37.2983C117.458 37.9825 117.849 38.911 116.53 40.5726L115.552 41.6967L112.962 40.8659C109.541 39.8396 103.09 35.8322 99.6204 32.6555C96.7859 30.0654 96.4438 29.4301 97.4701 28.4038C98.3986 27.4752 98.9851 27.6707 102.259 30.3097ZM106.658 30.1631C114.282 34.4149 118.142 37.3472 114.868 36.3209C111.594 35.3434 100.793 28.9414 100.793 28.0128C100.793 27.3286 103.041 28.1106 106.658 30.1631ZM99.5227 33.5352C103.041 36.8584 108.222 40.0351 112.18 41.4034C115.65 42.5763 115.846 42.723 114.722 43.9447C113.597 45.2154 112.425 45.1665 108.955 43.7492C102.455 41.0613 94.9288 35.1968 94.9288 32.8022C94.9288 32.0202 95.7596 30.7496 96.2972 30.7496C96.4438 30.7496 97.861 32.0202 99.5227 33.5352ZM96.1994 36.663C98.8385 39.4486 106.609 44.0425 111.154 45.5575C111.887 45.8018 111.74 46.4371 109.786 50.8355C108.613 53.6212 107.537 55.9181 107.44 56.0158C106.902 56.5534 103.774 54.3542 102.992 52.8392C101.429 49.9558 98.4964 48.2454 94.5867 47.9033C92.3875 47.7078 90.6282 47.2191 89.4064 46.486C88.429 45.8507 87.5982 45.2154 87.5982 45.1176C87.5982 44.6778 94.098 35.148 94.4401 35.148C94.5867 35.148 95.3686 35.8322 96.1994 36.663ZM93.4138 48.5875C97.0302 48.6852 100.011 50.2979 101.966 53.1813C102.748 54.3542 104.117 55.7226 104.996 56.2602C105.925 56.7978 106.658 57.4331 106.658 57.6774C106.658 58.0684 97.4212 80.6956 97.0791 81.0377C97.0302 81.1355 96.1017 80.6956 95.1243 80.0603C93.6093 79.1318 92.7296 78.9852 89.7974 79.034C85.6922 79.1806 84.0306 78.6431 81.8314 76.5416C80.1209 74.88 78.3127 71.85 78.3127 70.6282C78.3127 70.1884 77.0909 69.0644 75.6248 68.0869C74.1587 67.1095 72.9369 66.181 72.9369 66.0344C72.9369 65.8389 78.2638 58.0195 83.5907 50.4446L86.7185 45.9484L88.6733 47.2191C90.1394 48.1965 91.2635 48.5386 93.4138 48.5875ZM74.8917 68.7223C76.8954 69.8463 77.3353 70.3839 77.7751 72.0455C78.3616 74.489 80.1698 76.9326 82.5156 78.5942C84.0795 79.7182 84.8125 79.8648 88.5267 79.9137C92.8762 79.9626 95.6619 80.8422 96.2483 82.3572C96.3949 82.7482 96.0528 84.703 95.4664 86.609C94.1957 91.0074 94.1957 92.6201 95.4664 101.026C96.8836 110.067 96.6393 111.631 93.0228 119.108C89.6507 125.901 90.7259 125.364 83.8351 123.555C75.3804 121.356 63.0161 115.492 55.7343 110.263C50.8473 106.744 41.5618 98.6313 40.0957 96.6275L39.1182 95.2592L41.7084 91.7893C45.1294 87.1466 48.0127 84.9963 55.3434 81.4287C63.5537 77.519 64.8732 76.4927 68.5385 71.6056C70.2979 69.3087 71.9106 67.4516 72.155 67.4028C72.3504 67.4028 73.6211 67.9892 74.8917 68.7223ZM48.9902 106.597C56.3208 112.804 65.0198 117.935 74.3053 121.601C80.0232 123.898 85.7411 125.559 87.6959 125.559C88.4778 125.559 89.0643 125.803 89.0643 126.146C89.0643 126.927 74.1098 154.491 63.9935 172.377L55.5877 187.185L53.1442 186.892C49.7232 186.403 38.5318 183.52 35.3063 182.249C25.5321 178.389 16.1 172.28 8.47619 164.9L2.95378 159.476L4.51765 156.348C5.39732 154.588 10.3333 145.694 15.5136 136.555C20.6939 127.416 26.705 116.616 28.9531 112.608C31.1523 108.552 34.1823 103.225 35.6484 100.684L38.3852 96.09L42.0994 99.9996C44.1519 102.15 47.2308 105.131 48.9902 106.597ZM5.34845 163.483C12.1904 171.449 25.2389 179.952 36.577 183.862C41.7084 185.67 49.9187 187.625 52.2645 187.625C54.7569 187.625 55.0501 188.212 53.8772 190.606C52.3622 193.636 51.5314 194.418 49.3323 195.005C46.3023 195.835 37.6032 195.591 32.6184 194.516C22.0134 192.317 11.8483 185.964 6.17926 177.998C3.54023 174.332 1.14555 168.956 1.09668 166.708C1.09668 164.656 2.0741 160.746 2.61168 160.746C2.80716 160.746 4.02894 161.968 5.34845 163.483Z" fill="#151515"/>
<path d="M124.496 3.0885C122.101 3.96818 119.217 5.18995 118.142 5.7764L116.188 6.85156L118.142 6.55834C120.293 6.21624 129.48 2.55092 129.92 1.86673C130.36 1.13367 129.041 1.42689 124.496 3.0885Z" fill="white"/>
<path d="M127.672 4.45706C124.789 5.92318 121.319 7.2427 118.485 7.92689C114.184 8.95318 113.94 9.05092 114.086 10.2238C114.233 11.3967 114.379 11.4456 117.165 11.3967C122.541 11.299 134.026 5.7277 134.416 2.99093C134.661 1.32932 133.048 1.67141 127.672 4.45706Z" fill="white"/>
<path d="M133.292 6.41176C129.187 9.49062 120.341 13.1559 116.92 13.1559C115.161 13.1559 114.721 13.7913 115.747 14.8175C117.36 16.4303 122.931 15.3063 129.92 11.8853C134.123 9.83272 136.713 7.38917 136.224 5.87418C135.833 4.55466 135.638 4.60353 133.292 6.41176Z" fill="white"/>
<path d="M134.954 10.5171C132.462 12.423 125.669 15.5508 121.954 16.4793C120.097 16.9192 118.533 17.5056 118.436 17.7011C118.24 18.1898 120.342 26.9377 120.83 27.4753C121.417 28.1595 123.958 26.84 125.375 25.0806C127.77 22.1972 132.168 20.6334 135.687 21.4642C137.349 21.8063 139.45 21.3175 141.307 20.1446C141.454 20.0469 137.153 9.93063 136.713 9.39305C136.664 9.2953 135.883 9.83288 134.954 10.5171Z" fill="white"/>
<path d="M140.379 22.4416C139.011 23.1747 138.033 23.3213 135.443 23.0769C131.289 22.7348 129.285 23.419 126.793 26.0581C125.669 27.2798 124.007 28.5016 123.03 28.7948C122.101 29.088 121.319 29.5279 121.319 29.6745C121.368 30.5053 127.086 53.328 127.33 53.5724C127.477 53.719 128.552 53.4746 129.725 53.0348C131.631 52.3017 132.022 52.3017 133.977 52.9859C136.469 53.8656 137.544 53.9145 139.939 53.2303C142.089 52.6438 145.364 49.7604 146.586 47.3658C147.221 46.144 148.247 45.3132 150.055 44.4824C151.473 43.7982 152.597 43.0651 152.597 42.8208C152.597 42.1366 143.311 22.7348 142.676 22.0995C142.236 21.6597 141.698 21.7574 140.379 22.4416Z" fill="#F0C406"/>
<path d="M150.348 45.8995C148.98 46.486 148.149 47.2191 147.856 48.1965C146.048 53.3768 138.864 56.6023 133.83 54.5008C132.364 53.9144 131.875 53.9144 129.92 54.5986L127.672 55.4294L127.966 61.0495L128.259 66.6697L126.011 73.7071C123.127 82.7482 123.078 84.6542 125.522 92.4246L127.379 98.1914H130.214C137.104 98.1914 152.89 94.0374 161.735 89.8834C168.333 86.8045 181.43 78.2521 181.43 77.0792C181.43 76.786 180.599 75.0266 179.622 73.1206C177.227 68.6245 173.709 65.0569 166.916 60.3653C160.611 56.0158 158.803 54.1099 156.017 48.7829C153.818 44.58 153.574 44.4334 150.348 45.8995ZM154.747 55.185C156.311 57.4331 158.217 59.3879 160.416 61.0495C164.228 63.8352 166.574 66.3765 167.991 68.9666C169.261 71.4102 168.48 71.9966 166.867 69.8463C165.059 67.4516 162.126 64.6171 158.51 61.7826C155.578 59.4857 152.645 55.576 151.863 52.8392C151.277 50.8355 152.401 51.7152 154.747 55.185ZM171.412 75.3687C172.731 77.7145 172.878 78.1543 172.145 78.1543C171.656 78.1543 169.701 74.6845 169.701 73.756C169.701 72.8274 170.141 73.2672 171.412 75.3687Z" fill="white"/>
<path d="M179.231 81.1355C172.975 86.3158 161.197 92.7179 152.84 95.4546C146.683 97.4583 139.108 99.12 133.39 99.7553C130.164 100.097 128.209 100.537 128.307 100.879C128.454 101.124 130.897 108.063 133.781 116.274C136.664 124.484 141.111 136.653 143.653 143.397C146.194 150.092 149.028 157.765 150.006 160.355L151.716 165.145H155.724C167.746 165.145 180.061 162.163 191.448 156.543C195.993 154.295 199.268 152.194 206.598 146.818C207.527 146.085 207.527 146.036 206.403 142.566C205.768 140.611 201.809 129.762 197.557 118.473C193.354 107.184 188.37 93.9396 186.61 89.0526C184.802 84.1655 183.043 79.8648 182.749 79.4739C182.261 78.8385 181.723 79.0829 179.231 81.1355Z" fill="#F0C406"/>
<path d="M205.572 149.652C193.257 159.915 174.93 166.513 157.972 166.757C151.814 166.855 151.912 166.806 153.769 170.862C154.942 173.306 155.089 173.404 158.314 174.43C163.055 175.945 173.806 176.336 179.426 175.212C188.419 173.404 195.26 169.836 201.272 163.923C206.599 158.645 208.309 155.566 208.309 151.265C208.309 149.506 208.114 148.04 207.918 148.04C207.674 148.04 206.647 148.773 205.572 149.652Z" fill="white"/>
<path d="M101.282 28.0617C101.282 28.7948 109.884 34.0729 113.256 35.3924L115.21 36.1743L113.744 34.9037C111.545 33.0466 101.282 27.4264 101.282 28.0617Z" fill="white"/>
<path d="M97.5191 29.0878C96.9326 30.7006 103.677 36.223 110.079 39.253C113.94 41.1101 115.357 41.4033 116.334 40.4259C117.605 39.1552 116.97 38.1778 114.233 37.2982C110.861 36.2719 104.752 32.802 101.722 30.2607C99.2296 28.1593 98.0078 27.8172 97.5191 29.0878Z" fill="white"/>
<path d="M95.417 32.6557C95.417 37.1029 113.255 47.3169 114.672 43.6516C115.063 42.6253 115.21 42.7719 112.277 41.7945C108.612 40.6216 102.748 37.0052 99.4244 33.9263C97.8117 32.4602 96.2478 31.2384 95.9546 31.2384C95.6613 31.2384 95.417 31.8737 95.417 32.6557Z" fill="white"/>
<path d="M91.1169 40.2306C89.4553 42.723 88.0869 44.9222 88.0869 45.0688C88.0869 45.8508 91.7034 47.268 94.3424 47.4635C98.0566 47.7079 101.526 49.7116 103.09 52.4972C104.068 54.2566 105.729 55.625 106.951 55.6738C107.391 55.6738 108.808 52.7416 111.398 46.5838C111.496 46.2417 110.616 45.7042 109.346 45.2643C106.316 44.1892 99.9137 40.3284 96.9325 37.7382C95.613 36.6142 94.4401 35.6368 94.3424 35.6368C94.2446 35.6368 92.7785 37.6893 91.1169 40.2306Z" fill="white"/>
<path d="M85.7902 47.7564C83.7376 50.5421 73.8168 65.1545 73.5725 65.692C73.4747 66.0341 74.4033 66.9627 75.7228 67.7446C77.6288 68.9664 78.2152 69.6506 78.8994 71.6543C79.9257 74.6354 83.2 77.8609 85.9368 78.5939C86.9631 78.8872 88.9179 78.9849 90.2863 78.8383C92.29 78.5939 93.2186 78.7406 94.8313 79.5714L96.8839 80.5977L97.617 79.0338C98.0079 78.1541 100.207 73.0227 102.455 67.6469C106.463 58.0193 106.511 57.8727 105.583 57.1396C104.166 56.1133 102.211 54.1096 100.842 52.2525C99.2297 50.1511 96.2974 48.8316 93.072 48.8316C91.3126 48.8316 89.9931 48.5383 89.1623 47.9519C86.9142 46.388 86.8165 46.388 85.7902 47.7564Z" fill="#29347F"/>
<path d="M69.0267 71.6054C65.2148 76.6391 64.0419 77.5677 57.5421 80.6465C48.4521 84.8983 44.8845 87.5862 40.9748 93.2552L39.6064 95.2101L40.5839 96.6273C42.0011 98.5821 51.2866 106.744 55.9293 110.067C64.6283 116.273 79.3385 122.773 88.1352 124.337L89.9435 124.679L92.7291 119.01C96.2478 111.973 96.4922 109.822 94.9283 99.755C93.8043 92.3267 93.8531 90.8605 95.4659 85.5336C96.0035 83.8231 96.3456 82.357 96.2967 82.3081C93.2178 80.3044 92.5825 80.1578 89.4059 80.451C86.5225 80.6954 85.8872 80.5977 83.4436 79.4248C80.4625 77.9098 78.0678 75.0264 77.4325 72.0452C77.1393 70.628 76.6506 70.0415 74.598 68.9175L72.1545 67.5003L69.0267 71.6054ZM72.9364 75.1241C72.9364 75.9549 70.1019 79.9623 68.538 81.233C67.6583 81.966 65.2637 83.5299 63.2111 84.6539C61.1585 85.778 58.2263 87.8305 56.6624 89.2967C55.0985 90.7139 53.6324 91.7402 53.3392 91.5447C52.1174 90.8117 57.3955 85.7291 62.1848 83.1389C64.9704 81.6728 67.3162 79.8646 69.2711 77.8609C72.1056 74.9286 72.9364 74.2933 72.9364 75.1241ZM50.749 95.7476C49.5761 97.507 48.5009 98.2889 48.5009 97.3115C48.5009 96.725 51.5309 93.2063 51.8242 93.4996C51.9708 93.6462 51.4821 94.6725 50.749 95.7476Z" fill="white"/>
<path d="M35.4529 101.759C33.7913 104.495 29.5884 111.924 26.1186 118.228C22.5999 124.533 16.882 134.747 13.3633 140.953C9.8446 147.111 6.13041 153.806 5.10412 155.761L3.2959 159.329L8.91605 164.802C19.912 175.505 33.2538 182.542 48.5992 185.67C55.9787 187.185 54.8058 188.016 61.2079 176.727C73.279 155.37 88.5756 127.416 88.5756 126.536C88.5756 126.341 87.6471 125.999 86.523 125.803C82.8088 125.168 74.3053 122.138 68.1964 119.206C58.0313 114.367 50.1142 108.747 42.5881 101.026L38.4341 96.725L35.4529 101.759Z" fill="#29347F"/>
<path d="M2.12331 162.31C1.04815 165.291 1.04815 167.002 2.31879 170.276C6.61943 181.712 18.7883 191.388 32.3744 194.125C40.8291 195.835 49.3326 195.64 51.5806 193.636C52.0694 193.147 53.0468 191.779 53.6332 190.557L54.7573 188.309L50.4566 187.723C43.6636 186.794 35.3555 184.057 27.7317 180.294C19.277 176.092 13.0215 171.644 7.10814 165.731C2.8075 161.43 2.56315 161.235 2.12331 162.31Z" fill="white"/>
<path d="M62.7354 135.386C64.4012 140.546 63.2904 146.492 59.4031 153.225C57.8172 155.972 56.0246 158.265 54.0254 160.103C52.0455 161.908 50.0632 163.175 48.0785 163.905C46.1131 164.602 44.1782 164.936 42.2736 164.908C40.4219 164.867 38.6869 164.468 37.0686 163.712C36.7478 163.572 36.4367 163.414 36.1352 163.24C33.5893 161.77 31.8504 159.561 30.9184 156.611C30.1331 154.103 30.0232 151.315 30.5886 148.247C31.2068 145.165 32.4707 142.008 34.3802 138.778C35.8448 136.319 37.4421 134.249 39.172 132.568C40.9018 130.887 42.5433 129.668 44.0963 128.912C45.7022 128.142 47.3092 127.641 48.9175 127.408C50.5786 127.161 52.0277 127.127 53.2647 127.305C54.5017 127.483 55.6517 127.812 56.7146 128.292C59.6162 129.61 61.6231 131.974 62.7354 135.386ZM40.1789 156.932C41.984 157.751 44.0285 157.614 46.3123 156.521C48.6489 155.413 50.8519 153.067 52.9212 149.483C55.6869 144.693 56.5728 140.76 55.5789 137.685C55.2146 136.537 54.6305 135.731 53.8265 135.267C53.7596 135.228 53.6758 135.18 53.5753 135.122C53.4413 135.044 53.2712 134.991 53.0651 134.961C52.8782 134.898 52.5619 134.827 52.1161 134.748C51.7231 134.655 51.2914 134.629 50.821 134.67C50.3507 134.712 49.8081 134.8 49.1934 134.937C48.5981 135.04 47.9685 135.279 47.3047 135.655C46.641 136.031 45.9456 136.501 45.2187 137.064C44.5445 137.612 43.824 138.358 43.0569 139.299C42.3234 140.26 41.5821 141.351 40.833 142.571C39.5372 144.815 38.6448 146.98 38.1558 149.065C37.6667 151.15 37.6301 152.915 38.0458 154.361C38.4578 155.581 39.1688 156.439 40.1789 156.932Z" fill="white"/>
<path d="M178.741 121.327C182.302 123.448 184.42 126.541 185.093 130.607C185.582 133.549 185.003 136.186 183.356 138.518C181.696 140.814 179.532 142.424 176.864 143.35C176.572 143.451 176.28 143.553 175.987 143.654C174.621 143.965 173.247 144.135 171.865 144.164C170.47 144.156 168.963 143.942 167.343 143.522C165.76 143.089 164.141 142.258 162.487 141.031C160.82 139.767 159.265 138.116 157.821 136.079L163.914 131.692C164.648 132.748 165.43 133.643 166.259 134.379C167.075 135.079 167.809 135.602 168.461 135.948C169.138 136.246 169.844 136.451 170.579 136.565C171.314 136.678 171.939 136.707 172.452 136.652C172.965 136.597 173.526 136.504 174.136 136.374C174.697 136.221 175.263 135.963 175.833 135.601C176.404 135.239 176.881 134.726 177.264 134.061C177.684 133.383 177.84 132.653 177.733 131.871C177.429 130.052 176.507 128.694 174.967 127.795C174.351 127.436 173.662 127.163 172.902 126.976C172.141 126.79 171.345 126.677 170.512 126.639C169.68 126.6 168.8 126.66 167.872 126.818C166.981 126.963 166.079 127.195 165.165 127.512L163.111 121.592C164.592 120.669 165.969 119.269 167.243 117.394C168.287 115.804 168.54 114.467 168.001 113.385C167.574 112.509 166.687 112.019 165.341 111.913C163.786 111.798 162.616 112.203 161.833 113.13C161.001 114.156 160.904 115.705 161.541 117.776L154.356 119.901C153.003 115.294 153.561 111.477 156.032 108.449C157.14 107.041 158.577 105.99 160.342 105.295C162.094 104.564 163.944 104.291 165.892 104.475C167.863 104.61 169.637 105.181 171.215 106.189C172.781 107.161 173.971 108.468 174.786 110.109C175.213 110.984 175.47 111.96 175.556 113.035C175.68 114.098 175.559 115.225 175.194 116.416C174.83 117.607 174.213 118.722 173.345 119.76C175.389 119.869 177.188 120.392 178.741 121.327Z" fill="white"/>
</svg>
