<svg width="210" height="198" viewBox="0 0 210 198" fill="none" xmlns="http://www.w3.org/2000/svg">
<path d="M125.962 2.07366C121.612 3.58866 116.237 5.98334 114.477 7.25398C113.744 7.79156 113.011 8.81785 112.864 9.55091C112.522 11.3103 113.94 15.5132 115.552 17.4191C116.579 18.6409 117.556 21.9152 120.733 34.9638C127.917 63.9931 127.917 64.1397 124.496 74.6958C121.319 84.7143 121.417 86.1805 126.157 99.8643C133.732 121.563 140.134 139.401 144.386 150.446C146.781 156.75 149.664 164.472 150.739 167.551C151.815 170.629 153.183 173.659 153.72 174.246C155.04 175.712 158.754 177.08 163.446 177.813C168.235 178.595 178.107 178.204 182.408 177.031C193.795 174.001 203.569 167.062 208.065 158.705C211.29 152.694 210.899 150.397 203.667 131.142C186.904 86.7181 184.509 80.7069 181.039 73.9628C178.4 68.7336 174.93 65.166 168.479 60.7676C160.367 55.2941 160.22 55.0497 150.251 35.2081C145.412 25.4828 140.428 15.7086 139.206 13.4606C137.642 10.6261 137.104 9.0622 137.3 8.32914C137.642 6.96075 135.296 2.07366 133.977 1.38947C132.559 0.607537 129.578 0.851892 125.962 2.07366ZM131.582 2.17141C131.582 2.61124 122.736 6.56979 119.755 7.44946C114.917 8.81785 113.988 8.08478 118.338 6.17882C124.984 3.24657 131.582 1.24286 131.582 2.17141ZM134.807 3.44205C135.052 4.27285 134.807 4.81043 133.537 5.88559C129.823 8.96446 119.902 13.1185 116.237 13.1185C114.819 13.1185 114.331 12.8741 113.891 11.9456C113.06 10.0885 113.646 9.35543 116.432 9.01333C120.537 8.47575 130.898 4.32173 131.826 2.8556C132.413 1.92705 134.416 2.31802 134.807 3.44205ZM136.371 7.30285C136.665 9.79527 130.653 13.5583 122.345 16.0507C118.045 17.3703 115.308 17.0282 115.064 15.2199C114.917 14.3403 115.21 14.0959 116.774 13.8515C122.248 12.923 129.236 10.0885 132.804 7.35172C135.101 5.59237 136.176 5.5435 136.371 7.30285ZM139.352 15.3665C140.721 18.2499 141.845 20.7423 141.845 20.9378C141.845 21.9152 137.74 22.9415 135.198 22.5994C131.533 22.1596 128.21 23.3814 125.864 26.0204C124.105 27.9752 121.124 29.588 120.635 28.8549C120.097 27.9752 117.8 18.4454 118.045 18.2011C118.191 18.0056 119.315 17.7124 120.537 17.468C124.007 16.8327 130.409 14.1936 133.439 12.0922C134.954 11.0659 136.371 10.1862 136.567 10.1862C136.713 10.1862 137.984 12.532 139.352 15.3665ZM147.954 32.9601C150.788 38.7757 153.085 43.7117 153.085 43.9072C153.085 44.0538 151.961 44.738 150.593 45.3733C148.736 46.253 147.709 47.1815 146.341 49.2341C143.115 54.0723 139.597 55.6362 134.612 54.3655C131.729 53.6325 131.338 53.6325 129.334 54.4144C128.112 54.8542 127.037 55.1963 126.988 55.0986C126.89 55.0008 125.571 49.625 124.007 43.1741C122.443 36.7231 121.075 31.2007 120.977 30.9075C120.879 30.6143 121.71 29.9789 122.883 29.4902C124.007 29.0504 125.669 27.8286 126.548 26.8023C128.796 24.1633 131.68 23.1859 135.834 23.5769C138.277 23.7723 139.499 23.6746 140.379 23.137C141.063 22.7461 141.894 22.4528 142.236 22.404C142.578 22.404 145.168 27.1444 147.954 32.9601ZM156.115 49.3318C158.999 54.7565 161.1 57.0046 167.16 61.1586C174.344 65.9968 177.423 69.1734 179.915 74.1094C181.039 76.3574 181.821 78.3123 181.724 78.5566C181.577 78.7521 178.987 80.6581 176.006 82.7595C166.574 89.406 155.773 94.3419 144.533 97.1276C139.597 98.3493 131.973 99.62 129.285 99.62H127.281L125.375 94.0976C122.785 86.376 122.834 83.1016 125.669 74.4515C127.868 67.7073 128.259 64.6284 127.526 59.2526L127.086 56.2715L129.383 55.4407C131.484 54.6099 131.875 54.6099 134.416 55.2941C139.988 56.8091 144.973 54.4633 147.563 49.0875C148.247 47.6213 148.931 46.986 150.642 46.3507C151.863 45.862 153.085 45.471 153.427 45.4221C153.72 45.3733 154.942 47.1815 156.115 49.3318ZM184.314 83.1505C185.144 85.1542 187.099 90.3834 188.712 94.7818C190.276 99.1801 194.381 110.176 197.802 119.168C201.223 128.161 204.888 138.13 205.963 141.307C207.869 146.878 207.918 147.122 207.039 147.758C196.434 155.577 189.641 159.34 180.404 162.419C171.363 165.4 153.183 167.697 151.766 166.036C150.69 164.667 128.845 105.338 128.063 101.575C127.966 101.037 128.747 100.793 131.924 100.5C148.491 99.0824 167.991 91.2631 179.475 81.4889C180.697 80.4626 181.919 79.6318 182.261 79.5829C182.554 79.5829 183.483 81.1956 184.314 83.1505ZM208.505 149.273C208.651 149.713 208.798 151.228 208.798 152.645C208.798 154.795 208.456 155.822 207.088 158.216C200.832 168.87 187.588 176.347 173.367 177.178C167.698 177.52 161.002 176.738 157.239 175.321C154.991 174.49 154.502 174.05 153.574 172.096C152.987 170.825 152.499 169.261 152.45 168.626C152.352 167.453 152.45 167.404 155.284 167.502C159.341 167.648 168.089 166.72 173.611 165.547C184.411 163.201 196.873 157.288 205.133 150.543C207.918 148.247 208.114 148.198 208.505 149.273Z" fill="#151515"/>
<path d="M98.9851 27.6332C97.4701 27.9265 94.4401 31.8361 94.098 33.9865C93.9025 35.2571 92.192 37.9939 88.3312 43.1253C85.3501 47.1816 80.6096 53.7792 77.824 57.8355C71.9595 66.2901 66.3393 73.8162 64.3356 75.8688C63.5537 76.6507 61.1101 78.1657 58.9109 79.192C53.1931 81.8799 48.1105 84.8122 45.6181 86.8159C41.7084 89.9925 35.9905 98.5449 26.3629 115.747C24.3592 119.364 18.9346 128.943 14.2918 137.006C0.461362 161.197 -0.955894 164.618 0.412491 169.896C3.29587 180.892 15.1226 191.742 28.5621 195.602C36.7724 197.948 46.9865 198.193 51.2871 196.091C52.8021 195.309 53.584 194.381 55.5389 190.764C56.8584 188.321 61.5988 179.866 66.095 171.949C78.2638 150.495 94.3423 120.586 96.2483 115.747C97.6167 112.278 97.6656 108.71 96.3461 100.451C95.8085 96.8833 95.4664 93.1202 95.613 92.0451C96.1017 88.282 99.4738 79.2898 107.342 60.67C112.327 48.8921 113.207 47.035 114.428 46.3997C115.601 45.7643 117.898 41.0239 117.898 39.1668C117.898 37.4563 116.53 36.039 111.789 33.009C105.387 28.9039 101.331 27.2423 98.9851 27.6332ZM102.259 31.2497C105.485 33.8398 111.887 37.3097 115.21 38.2382C117.458 38.9224 117.849 39.851 116.53 41.5126L115.552 42.6366L112.962 41.8058C109.541 40.7795 103.09 36.7721 99.6204 33.5955C96.7859 31.0053 96.4438 30.37 97.4701 29.3437C98.3986 28.4152 98.9851 28.6107 102.259 31.2497ZM106.658 31.1031C114.282 35.3548 118.142 38.2871 114.868 37.2608C111.594 36.2834 100.793 29.8813 100.793 28.9528C100.793 28.2686 103.041 29.0505 106.658 31.1031ZM99.5227 34.4752C103.041 37.7984 108.222 40.975 112.18 42.3434C115.65 43.5163 115.846 43.6629 114.722 44.8847C113.597 46.1553 112.425 46.1064 108.955 44.6892C102.455 42.0013 94.9288 36.1368 94.9288 33.7421C94.9288 32.9602 95.7596 31.6895 96.2972 31.6895C96.4438 31.6895 97.861 32.9602 99.5227 34.4752ZM96.1994 37.6029C98.8385 40.3885 106.609 44.9824 111.154 46.4974C111.887 46.7418 111.74 47.3771 109.786 51.7755C108.613 54.5611 107.537 56.858 107.44 56.9558C106.902 57.4934 103.774 55.2942 102.992 53.7792C101.429 50.8958 98.4964 49.1853 94.5867 48.8432C92.3875 48.6477 90.6282 48.159 89.4064 47.426C88.429 46.7906 87.5982 46.1553 87.5982 46.0576C87.5982 45.6177 94.098 36.0879 94.4401 36.0879C94.5867 36.0879 95.3686 36.7721 96.1994 37.6029ZM93.4138 49.5274C97.0302 49.6251 100.011 51.2379 101.966 54.1213C102.748 55.2942 104.117 56.6626 104.996 57.2001C105.925 57.7377 106.658 58.373 106.658 58.6174C106.658 59.0084 97.4212 81.6356 97.0791 81.9777C97.0302 82.0754 96.1017 81.6356 95.1243 81.0003C93.6093 80.0717 92.7296 79.9251 89.7974 79.974C85.6922 80.1206 84.0306 79.583 81.8314 77.4815C80.1209 75.8199 78.3127 72.7899 78.3127 71.5682C78.3127 71.1283 77.0909 70.0043 75.6248 69.0269C74.1587 68.0495 72.9369 67.1209 72.9369 66.9743C72.9369 66.7788 78.2638 58.9595 83.5907 51.3845L86.7185 46.8884L88.6733 48.159C90.1394 49.1364 91.2635 49.4785 93.4138 49.5274ZM74.8917 69.6622C76.8954 70.7862 77.3353 71.3238 77.7751 72.9854C78.3616 75.429 80.1698 77.8725 82.5156 79.5341C84.0795 80.6582 84.8125 80.8048 88.5267 80.8536C92.8762 80.9025 95.6619 81.7822 96.2483 83.2972C96.3949 83.6882 96.0528 85.643 95.4664 87.549C94.1957 91.9473 94.1957 93.5601 95.4664 101.966C96.8836 111.007 96.6393 112.571 93.0228 120.048C89.6507 126.841 90.7259 126.304 83.8351 124.495C75.3804 122.296 63.0161 116.432 55.7343 111.202C50.8473 107.684 41.5618 99.5712 40.0957 97.5675L39.1182 96.1991L41.7084 92.7293C45.1294 88.0865 48.0127 85.9362 55.3434 82.3686C63.5537 78.459 64.8732 77.4327 68.5385 72.5456C70.2979 70.2487 71.9106 68.3916 72.155 68.3427C72.3504 68.3427 73.6211 68.9291 74.8917 69.6622ZM48.9902 107.537C56.3208 113.744 65.0198 118.875 74.3053 122.541C80.0232 124.837 85.7411 126.499 87.6959 126.499C88.4778 126.499 89.0643 126.743 89.0643 127.086C89.0643 127.867 74.1098 155.431 63.9935 173.317L55.5877 188.125L53.1442 187.832C49.7232 187.343 38.5318 184.46 35.3063 183.189C25.5321 179.328 16.1 173.22 8.47619 165.84L2.95378 160.415L4.51765 157.288C5.39732 155.528 10.3333 146.634 15.5136 137.495C20.6939 128.356 26.705 117.556 28.9531 113.548C31.1523 109.492 34.1823 104.165 35.6484 101.624L38.3852 97.0299L42.0994 100.94C44.1519 103.09 47.2308 106.071 48.9902 107.537ZM5.34845 164.423C12.1904 172.389 25.2389 180.892 36.577 184.802C41.7084 186.61 49.9187 188.565 52.2645 188.565C54.7569 188.565 55.0501 189.152 53.8772 191.546C52.3622 194.576 51.5314 195.358 49.3323 195.945C46.3023 196.775 37.6032 196.531 32.6184 195.456C22.0134 193.257 11.8483 186.903 6.17926 178.938C3.54023 175.272 1.14555 169.896 1.09668 167.648C1.09668 165.596 2.0741 161.686 2.61168 161.686C2.80716 161.686 4.02894 162.908 5.34845 164.423Z" fill="#151515"/>
<path d="M124.496 4.02844C122.101 4.90812 119.217 6.12989 118.142 6.71634L116.188 7.7915L118.142 7.49828C120.293 7.15618 129.48 3.49086 129.92 2.80667C130.36 2.07361 129.041 2.36683 124.496 4.02844Z" fill="white"/>
<path d="M127.672 5.397C124.789 6.86312 121.319 8.18264 118.485 8.86683C114.184 9.89312 113.94 9.99086 114.086 11.1638C114.233 12.3367 114.379 12.3855 117.165 12.3367C122.541 12.2389 134.026 6.66764 134.416 3.93087C134.661 2.26926 133.048 2.61136 127.672 5.397Z" fill="white"/>
<path d="M133.293 7.3517C129.187 10.4306 120.342 14.0959 116.921 14.0959C115.161 14.0959 114.722 14.7312 115.748 15.7575C117.361 17.3702 122.932 16.2462 129.92 12.8252C134.123 10.7727 136.714 8.32911 136.225 6.81412C135.834 5.4946 135.638 5.54347 133.293 7.3517Z" fill="white"/>
<path d="M134.954 11.457C132.462 13.363 125.669 16.4907 121.954 17.4193C120.097 17.8591 118.533 18.4456 118.436 18.641C118.24 19.1297 120.342 27.8776 120.83 28.4152C121.417 29.0994 123.958 27.7799 125.375 26.0205C127.77 23.1372 132.168 21.5733 135.687 22.4041C137.349 22.7462 139.45 22.2575 141.307 21.0846C141.454 20.9868 137.153 10.8706 136.713 10.333C136.664 10.2352 135.883 10.7728 134.954 11.457Z" fill="white"/>
<path d="M140.378 23.3816C139.01 24.1146 138.033 24.2612 135.443 24.0169C131.289 23.6748 129.285 24.359 126.792 26.998C125.668 28.2198 124.007 29.4415 123.029 29.7348C122.101 30.028 121.319 30.4678 121.319 30.6144C121.368 31.4452 127.086 54.268 127.33 54.5123C127.477 54.6589 128.552 54.4146 129.725 53.9747C131.631 53.2417 132.022 53.2417 133.976 53.9259C136.469 54.8055 137.544 54.8544 139.939 54.1702C142.089 53.5838 145.363 50.7004 146.585 48.3057C147.22 47.0839 148.247 46.2531 150.055 45.4223C151.472 44.7381 152.596 44.0051 152.596 43.7607C152.596 43.0765 143.311 23.6748 142.675 23.0395C142.236 22.5996 141.698 22.6974 140.378 23.3816Z" fill="white"/>
<path d="M150.348 46.8395C148.98 47.4259 148.149 48.159 147.856 49.1364C146.048 54.3167 138.864 57.5422 133.83 55.4408C132.364 54.8543 131.875 54.8543 129.92 55.5385L127.672 56.3693L127.966 61.9895L128.259 67.6096L126.011 74.647C123.127 83.6881 123.078 85.5941 125.522 93.3646L127.379 99.1313H130.214C137.104 99.1313 152.89 94.9773 161.735 90.8233C168.333 87.7444 181.43 79.192 181.43 78.0191C181.43 77.7259 180.599 75.9665 179.622 74.0606C177.227 69.5645 173.709 65.9969 166.916 61.3053C160.611 56.9558 158.803 55.0498 156.017 49.7229C153.818 45.52 153.574 45.3734 150.348 46.8395ZM154.747 56.125C156.311 58.373 158.217 60.3279 160.416 61.9895C164.228 64.7751 166.574 67.3164 167.991 69.9066C169.261 72.3501 168.48 72.9365 166.867 70.7862C165.059 68.3916 162.126 65.557 158.51 62.7225C155.578 60.4256 152.645 56.5159 151.863 53.7792C151.277 51.7755 152.401 52.6551 154.747 56.125ZM171.412 76.3086C172.731 78.6544 172.878 79.0943 172.145 79.0943C171.656 79.0943 169.701 75.6244 169.701 74.6959C169.701 73.7674 170.141 74.2072 171.412 76.3086Z" fill="white"/>
<path d="M179.231 82.0754C172.976 87.2557 161.198 93.6578 152.841 96.3946C146.683 98.3983 139.108 100.06 133.39 100.695C130.165 101.037 128.21 101.477 128.308 101.819C128.454 102.064 130.898 109.003 133.781 117.214C136.665 125.424 141.112 137.593 143.653 144.337C146.194 151.032 149.029 158.705 150.006 161.295L151.717 166.084H155.724C167.747 166.084 180.062 163.103 191.449 157.483C195.994 155.235 199.268 153.134 206.599 147.758C207.527 147.025 207.527 146.976 206.403 143.506C205.768 141.551 201.81 130.702 197.558 119.413C193.355 108.124 188.37 94.8796 186.611 89.9925C184.802 85.1054 183.043 80.8048 182.75 80.4138C182.261 79.7785 181.724 80.0228 179.231 82.0754Z" fill="white"/>
<path d="M205.573 150.592C193.257 160.855 174.931 167.453 157.972 167.697C151.815 167.795 151.912 167.746 153.77 171.802C154.942 174.246 155.089 174.344 158.315 175.37C163.055 176.885 173.807 177.276 179.427 176.152C188.419 174.344 195.261 170.776 201.272 164.863C206.599 159.585 208.31 156.506 208.31 152.205C208.31 150.446 208.114 148.98 207.919 148.98C207.674 148.98 206.648 149.713 205.573 150.592Z" fill="white"/>
<path d="M101.282 29.0017C101.282 29.7348 109.884 35.0128 113.256 36.3323L115.21 37.1143L113.744 35.8436C111.545 33.9865 101.282 28.3664 101.282 29.0017Z" fill="white"/>
<path d="M97.5191 30.0278C96.9326 31.6405 103.677 37.1629 110.079 40.1929C113.94 42.05 115.357 42.3432 116.334 41.3658C117.605 40.0952 116.97 39.1178 114.233 38.2381C110.861 37.2118 104.752 33.742 101.722 31.2007C99.2296 29.0992 98.0078 28.7571 97.5191 30.0278Z" fill="white"/>
<path d="M95.4175 33.5956C95.4175 38.0428 113.255 48.2569 114.673 44.5915C115.064 43.5653 115.21 43.7119 112.278 42.7345C108.613 41.5615 102.748 37.9451 99.4249 34.8662C97.8122 33.4001 96.2483 32.1783 95.9551 32.1783C95.6618 32.1783 95.4175 32.8137 95.4175 33.5956Z" fill="white"/>
<path d="M91.1169 41.1706C89.4553 43.663 88.0869 45.8622 88.0869 46.0088C88.0869 46.7907 91.7034 48.208 94.3424 48.4035C98.0566 48.6478 101.526 50.6515 103.09 53.4372C104.068 55.1965 105.729 56.5649 106.951 56.6138C107.391 56.6138 108.808 53.6815 111.398 47.5238C111.496 47.1817 110.616 46.6441 109.346 46.2043C106.316 45.1291 99.9137 41.2683 96.9325 38.6782C95.613 37.5541 94.4401 36.5767 94.3424 36.5767C94.2446 36.5767 92.7785 38.6293 91.1169 41.1706Z" fill="white"/>
<path d="M85.7897 48.6964C83.7371 51.482 73.8163 66.0944 73.572 66.632C73.4743 66.9741 74.4028 67.9026 75.7223 68.6846C77.6283 69.9063 78.2147 70.5905 78.8989 72.5942C79.9252 75.5753 83.1996 78.8008 85.9363 79.5339C86.9626 79.8271 88.9175 79.9249 90.2858 79.7782C92.2895 79.5339 93.2181 79.6805 94.8308 80.5113L96.8834 81.5376L97.6165 79.9737C98.0074 79.0941 100.207 73.9626 102.455 68.5868C106.462 58.9592 106.511 58.8126 105.582 58.0796C104.165 57.0533 102.21 55.0496 100.842 53.1925C99.2292 51.091 96.297 49.7715 93.0715 49.7715C91.3121 49.7715 89.9926 49.4783 89.1618 48.8918C86.9137 47.328 86.816 47.328 85.7897 48.6964Z" fill="white"/>
<path d="M69.0272 72.5454C65.2153 77.5791 64.0424 78.5076 57.5426 81.5865C48.4526 85.8382 44.885 88.5261 40.9753 94.1952L39.6069 96.15L40.5844 97.5672C42.0016 99.5221 51.2871 107.684 55.9298 111.007C64.6288 117.213 79.339 123.713 88.1357 125.277L89.944 125.619L92.7296 119.95C96.2483 112.913 96.4927 110.762 94.9288 100.695C93.8048 93.2666 93.8536 91.8005 95.4664 86.4736C96.0039 84.7631 96.346 83.2969 96.2972 83.2481C93.2183 81.2444 92.583 81.0978 89.4064 81.391C86.523 81.6353 85.8877 81.5376 83.4441 80.3647C80.463 78.8497 78.0683 75.9663 77.433 72.9852C77.1398 71.5679 76.6511 70.9815 74.5985 69.8575L72.1549 68.4402L69.0272 72.5454ZM72.9369 76.0641C72.9369 76.8949 70.1024 80.9023 68.5385 82.1729C67.6588 82.906 65.2642 84.4699 63.2116 85.5939C61.159 86.7179 58.2267 88.7705 56.6629 90.2366C55.099 91.6539 53.6329 92.6802 53.3397 92.4847C52.1179 91.7516 57.3959 86.669 62.1853 84.0789C64.9709 82.6128 67.3167 80.8045 69.2716 78.8008C72.1061 75.8686 72.9369 75.2333 72.9369 76.0641ZM50.7495 96.6876C49.5766 98.4469 48.5014 99.2289 48.5014 98.2514C48.5014 97.665 51.5314 94.1463 51.8247 94.4395C51.9713 94.5861 51.4826 95.6124 50.7495 96.6876Z" fill="white"/>
<path d="M35.4529 102.699C33.7913 105.435 29.5884 112.864 26.1186 119.168C22.5999 125.472 16.882 135.686 13.3633 141.893C9.8446 148.051 6.13041 154.746 5.10412 156.701L3.2959 160.269L8.91605 165.742C19.912 176.445 33.2538 183.482 48.5992 186.61C55.9787 188.125 54.8058 188.956 61.2079 177.667C73.279 156.31 88.5756 128.356 88.5756 127.476C88.5756 127.281 87.6471 126.939 86.523 126.743C82.8088 126.108 74.3053 123.078 68.1964 120.146C58.0313 115.307 50.1142 109.687 42.5881 101.966L38.4341 97.6649L35.4529 102.699Z" fill="white"/>
<path d="M2.12282 163.25C1.04766 166.231 1.04766 167.941 2.3183 171.216C6.61894 182.652 18.7878 192.328 32.3739 195.065C40.8286 196.775 49.3321 196.58 51.5802 194.576C52.0689 194.087 53.0463 192.719 53.6327 191.497L54.7568 189.249L50.4561 188.663C43.6631 187.734 35.355 184.997 27.7312 181.234C19.2765 177.031 13.021 172.584 7.10765 166.671C2.80701 162.37 2.56266 162.175 2.12282 163.25Z" fill="white"/>
<path d="M62.7349 136.326C64.4007 141.486 63.2899 147.432 59.4026 154.165C57.8167 156.912 56.0242 159.205 54.0249 161.043C52.045 162.848 50.0627 164.115 48.078 164.845C46.1127 165.542 44.1777 165.876 42.2731 165.848C40.4214 165.807 38.6864 165.408 37.0681 164.652C36.7473 164.512 36.4362 164.354 36.1347 164.18C33.5888 162.71 31.8499 160.5 30.9179 157.551C30.1327 155.043 30.0227 152.255 30.5881 149.187C31.2064 146.104 32.4702 142.948 34.3797 139.718C35.8444 137.259 37.4416 135.189 39.1715 133.508C40.9013 131.826 42.5428 130.608 44.0958 129.852C45.7017 129.082 47.3087 128.581 48.917 128.348C50.5781 128.101 52.0272 128.067 53.2642 128.245C54.5012 128.423 55.6512 128.752 56.7142 129.232C59.6157 130.55 61.6226 132.914 62.7349 136.326ZM40.1785 157.872C41.9835 158.691 44.028 158.554 46.3118 157.461C48.6484 156.353 50.8514 154.007 52.9208 150.423C55.6864 145.633 56.5723 141.7 55.5784 138.625C55.2141 137.477 54.63 136.671 53.8261 136.207C53.7591 136.168 53.6753 136.12 53.5748 136.062C53.4408 135.984 53.2708 135.931 53.0646 135.901C52.8778 135.838 52.5614 135.767 52.1156 135.688C51.7226 135.595 51.2909 135.569 50.8206 135.61C50.3502 135.652 49.8077 135.74 49.1929 135.877C48.5976 135.98 47.968 136.219 47.3042 136.595C46.6405 136.971 45.9451 137.441 45.2182 138.004C44.544 138.552 43.8235 139.298 43.0564 140.239C42.3229 141.2 41.5816 142.291 40.8325 143.511C39.5367 145.755 38.6443 147.92 38.1553 150.005C37.6662 152.09 37.6296 153.855 38.0453 155.301C38.4573 156.521 39.1683 157.379 40.1785 157.872Z" fill="#29347F"/>
<path d="M164.38 106.369L171.508 104.08C178.022 124.502 181.9 136.503 183.143 140.084L176.072 142.538C174.804 138.884 173.369 134.571 171.766 129.6C163.112 133.095 158.462 134.974 157.817 135.239L155.358 129.214L154.882 111.385L161.649 111.063L162.675 125.877C167.19 124.023 169.521 123.071 169.667 123.02C169.439 122.362 168.574 119.694 167.074 115.015C165.609 110.324 164.711 107.442 164.38 106.369Z" fill="#29347F"/>
</svg>
