<svg width="3650" height="3378" viewBox="0 0 3650 3378" fill="none" xmlns="http://www.w3.org/2000/svg">
<path d="M1641.74 8.22718C1222.85 57.21 820.852 281.855 571.716 606.155C483.04 721.856 353.827 952.413 334.402 1030.95C328.491 1052.07 326.802 1052.91 255.861 1056.29C200.966 1057.98 172.252 1063.89 143.538 1078.25C92.0219 1103.58 45.5727 1150.88 21.0812 1202.39C0.8125 1244.62 0.8125 1244.62 0.8125 1592.57V1939.67L28.682 1992.88C59.9297 2054.53 116.513 2102.66 177.32 2120.4C204.345 2128 270.218 2131.38 391.83 2131.38H568.337L588.606 2107.73L608.875 2084.09V1590.03V1095.98L587.762 1075.71C571.716 1058.82 559.048 1054.6 524.422 1054.6C501.62 1054.6 482.195 1051.22 482.195 1047C482.195 1042.78 504.153 996.329 531.178 943.968C743.155 525.925 1116.44 248.074 1584.31 161.087C1680.59 143.352 1951.68 141.663 2044.58 157.709C2460.93 232.028 2799.59 448.228 3025.08 783.507C3074.06 856.137 3167.8 1030.95 3167.8 1049.53C3167.8 1052.07 3148.38 1054.6 3125.58 1054.6C3090.95 1054.6 3078.28 1058.82 3062.24 1075.71L3041.12 1095.98V1590.03V2084.09L3060.55 2106.04C3074.91 2122.93 3090.11 2129.69 3119.67 2133.07C3141.62 2135.6 3159.36 2141.51 3159.36 2145.74C3159.36 2160.94 3079.97 2311.26 3034.37 2380.52C2836.75 2686.24 2520.89 2909.19 2157.75 3001.25C2080.05 3020.67 2074.98 3018.98 2044.58 2972.53C1901.01 2747.89 1551.37 2861.05 1564.88 3127.93C1575.02 3331.46 1797.13 3444.62 1970.26 3333.99C2014.17 3306.12 2066.54 3235.18 2074.98 3193.8C2080.05 3168.46 2083.43 3165.93 2128.19 3157.48C2660.24 3051.92 3121.36 2667.66 3306.31 2176.98L3321.51 2138.14L3382.32 2133.07C3465.08 2127.16 3504.77 2113.64 3552.91 2077.33C3580.78 2056.22 3602.74 2029.19 3621.32 1992.88L3649.19 1939.67V1592.57C3649.19 1244.62 3649.19 1244.62 3628.92 1202.39C3584.16 1106.96 3497.17 1054.6 3384 1054.6C3323.2 1054.6 3321.51 1053.76 3315.6 1030.95C3313.06 1018.29 3287.73 961.703 3260.7 905.119C3020.01 401.779 2555.52 71.567 1998.13 7.38265C1910.3 -1.90719 1729.57 -1.90719 1641.74 8.22718Z" fill="#29347F"/>
<path d="M1711.83 505.656C1273.52 555.483 913.75 849.38 782.848 1264.89C735.554 1413.53 722.042 1623.82 748.222 1777.52C824.23 2212.45 1150.22 2556.18 1583.46 2657.52C1664.54 2676.1 1696.63 2679.48 1820.78 2679.48C1975.33 2680.32 2047.96 2669.35 2171.26 2628.81C2547.07 2503.82 2832.53 2171.07 2901.78 1777.52C2917.82 1682.93 2917.82 1512.34 2901.78 1411.84C2838.44 1019.98 2552.14 683.007 2174.64 557.172C2037.82 511.568 1849.49 490.454 1711.83 505.656Z" fill="#29347F"/>
</svg>
