<svg width="339" height="59" viewBox="0 0 339 59" fill="none" xmlns="http://www.w3.org/2000/svg">
<path d="M21.9086 48.52C17.9886 48.52 11.2686 47.12 7.13859 43.62L12.2486 33.19C14.2086 35.08 17.8486 37.04 21.7686 36.9C26.1786 36.76 28.6286 30.74 18.8286 29.48C0.558593 27.1 3.56859 4 20.5086 3.16C27.0886 2.81 31.6386 4.35 33.9486 5.89L29.0486 16.18C27.5086 15.2 25.4086 14.36 22.7486 14.29C16.9386 14.08 16.0986 20.31 23.5886 21.08C45.1486 23.32 39.8986 48.52 21.9086 48.52ZM48.9849 44.67C44.5049 45.3 40.1649 44.39 36.5249 42.36C41.5649 34.52 39.4649 23.04 26.7949 20.17C27.0749 19.12 27.4249 18.07 27.8449 17.09C28.4749 17.44 29.0349 17.86 29.5949 18.28L34.0049 9.04C36.5949 7.01 39.7449 5.61 43.2449 5.19C54.7249 3.65 64.3149 11.35 65.8549 22.13C67.4649 33.12 59.6949 43.13 48.9849 44.67ZM47.3049 33.19C51.7149 32.56 54.1649 28.43 53.5349 23.88C52.9049 19.54 49.4749 16.32 45.0649 16.95C40.5849 17.58 38.1349 21.71 38.7649 26.12C39.3949 30.6 42.9649 33.82 47.3049 33.19ZM61.5423 39.7C65.8823 35.15 68.2623 28.71 67.2823 21.92C66.6523 17.65 64.8323 13.87 62.1723 10.79C68.9623 3.93 80.5123 2.04 89.7523 7.5L84.3623 18.98C79.0423 13.38 69.2423 17.37 70.0123 26.26C70.7823 35.22 81.7023 36.41 85.6223 30.18L94.0223 38.86C86.5323 49.99 69.9423 49.5 61.5423 39.7ZM88.2396 30.88L88.9396 12.68L91.5996 7.01L89.2196 5.61V5.19L102.24 5.68L101.54 46.14L88.5896 45.72C91.4596 44.11 93.9096 41.8 95.7996 38.65L88.2396 30.88ZM111.353 33.89L121.013 33.26L116.113 24.44L111.353 33.89ZM99.1733 47.47L102.953 47.61L103.303 24.79L116.113 0.709999L139.423 43.97L127.873 49.15L124.303 41.59L107.783 42.29L104.143 49.71L99.1733 47.47ZM130.001 23.6L130.981 3.02L143.651 4.42L142.251 32.49L158.141 29.97L160.941 42.57L135.671 47.12L141.341 44.6L130.001 23.6ZM149.937 7.99C154.347 6.17 160.857 4.07 168.487 4.56C178.847 5.26 185.007 13.38 183.957 22.55C182.557 34.45 171.147 39.84 160.857 35.92L159.177 28.36L149.027 29.97L149.937 7.99ZM160.787 25.07C166.247 27.45 171.987 26.26 172.127 21.08C172.477 15.69 165.827 14.64 161.137 17.02L160.787 25.07ZM148.537 46.21L160.227 44.11L160.157 47.19L148.537 46.21ZM179.154 34.52C182.444 31.79 184.754 27.8 185.384 22.69C186.014 17.02 184.054 11.63 180.134 7.99L180.274 5.19L193.294 5.68L192.594 46.14L178.734 45.72L179.154 34.52ZM195.688 45.93L201.288 14.85L194.568 14.36L194.708 4.35L190.298 4.14L190.648 2.18L226.138 4.77L224.878 16.32L213.188 15.69L210.248 47.26L195.688 45.93ZM217.695 27.8C217.275 23.95 217.765 20.45 219.025 17.37L226.165 17.79L227.285 7.71C234.075 3.51 243.245 2.95 250.875 7.5L245.485 18.98C240.165 13.38 230.365 17.37 231.135 26.26C231.905 35.22 242.825 36.41 246.745 30.18L255.145 38.86C245.275 53.49 219.725 48.03 217.695 27.8ZM247.473 46.84C251.253 45.3 254.543 42.57 256.923 38.65L246.563 27.94L246.213 20.87L252.723 7.01C251.673 6.31 250.553 5.68 249.433 5.19L258.603 4.77L259.163 19.4L268.263 18.21L267.003 6.24L279.463 5.61L282.263 45.79L269.803 46.35L268.823 28.57L259.723 29.76L260.703 47.96L247.543 48.59L247.473 46.84ZM280.82 4.56L300.49 3.02L301.19 14.08L285.79 15.48L286.14 19.47L297.69 18.77L298.11 28.78L286.7 29.48L287.05 34.52L303.29 33.12L300.7 45.23L283.69 46.42L280.82 4.56ZM307.196 24.58C309.646 24.79 312.236 24.65 314.546 23.81C320.706 21.57 319.236 15.48 314.616 15.48C311.466 15.48 308.876 16.32 306.566 17.02L307.196 24.58ZM295.506 15.97L302.646 15.34L302.156 7.22C306.566 5.68 311.116 4.84 315.666 4.77C332.116 4.42 335.336 24.51 322.456 29.69L332.956 40.82L322.876 48.59L311.956 33.4L307.756 34.1L308.526 46.35L296.696 47.4V46.91L301.806 46.56L305.026 31.58L296.136 32.35L296.066 30.32L299.566 30.11L299.006 17.3L295.576 17.51L295.506 15.97ZM328.998 58.0996L332.006 38.8906H338.773L333.51 58.0996H328.998Z" fill="#29347F"/>
</svg>
